<svg width="24" height="24" viewBox="0 0 24 24" fill="none" xmlns="http://www.w3.org/2000/svg">
<path d="M17.4546 17.4546C17.9091 17.4546 18.2953 17.2953 18.6131 16.9768C18.9317 16.6589 19.0909 16.2728 19.0909 15.8182C19.0909 15.3637 18.9317 14.9775 18.6131 14.6597C18.2953 14.3411 17.9091 14.1819 17.4546 14.1819C17 14.1819 16.6139 14.3411 16.296 14.6597C15.9775 14.9775 15.8182 15.3637 15.8182 15.8182C15.8182 16.2728 15.9775 16.6589 16.296 16.9768C16.6139 17.2953 17 17.4546 17.4546 17.4546ZM17.4546 20.7273C18 20.7273 18.5091 20.6 18.9819 20.3455C19.4546 20.0909 19.8455 19.7364 20.1546 19.2819C19.7364 19.0273 19.3 18.8411 18.8455 18.7233C18.3909 18.6048 17.9273 18.5455 17.4546 18.5455C16.9819 18.5455 16.5182 18.6048 16.0637 18.7233C15.6091 18.8411 15.1728 19.0273 14.7546 19.2819C15.0637 19.7364 15.4546 20.0909 15.9273 20.3455C16.4 20.6 16.9091 20.7273 17.4546 20.7273ZM3.27276 20.7273C2.67276 20.7273 2.15894 20.5139 1.73131 20.0869C1.3044 19.6593 1.09094 19.1455 1.09094 18.5455V3.27276C1.09094 2.67276 1.3044 2.15894 1.73131 1.73131C2.15894 1.3044 2.67276 1.09094 3.27276 1.09094H18.5455C19.1455 1.09094 19.6593 1.3044 20.0869 1.73131C20.5139 2.15894 20.7273 2.67276 20.7273 3.27276V10.5819C20.3819 10.4182 20.0273 10.2771 19.6637 10.1586C19.3 10.0408 18.9273 9.95458 18.5455 9.90003V3.27276H3.27276V18.5455H9.87276C9.92731 18.9455 10.0139 19.3273 10.1324 19.6909C10.2502 20.0546 10.3909 20.4 10.5546 20.7273H3.27276ZM3.27276 17.4546V18.5455V3.27276V9.90003V9.81822V17.4546ZM5.45458 16.3637H9.90003C9.95458 15.9819 10.0408 15.6091 10.1586 15.2455C10.2771 14.8819 10.4091 14.5273 10.5546 14.1819H5.45458V16.3637ZM5.45458 12H12.1091C12.6909 11.4546 13.3408 11 14.0586 10.6364C14.7771 10.2728 15.5455 10.0273 16.3637 9.90003V9.81822H5.45458V12ZM5.45458 7.6364H16.3637V5.45458H5.45458V7.6364ZM17.4546 22.9091C15.9455 22.9091 14.6593 22.3775 13.596 21.3142C12.532 20.2502 12 18.9637 12 17.4546C12 15.9455 12.532 14.6589 13.596 13.5949C14.6593 12.5317 15.9455 12 17.4546 12C18.9637 12 20.2502 12.5317 21.3142 13.5949C22.3775 14.6589 22.9091 15.9455 22.9091 17.4546C22.9091 18.9637 22.3775 20.2502 21.3142 21.3142C20.2502 22.3775 18.9637 22.9091 17.4546 22.9091Z" fill="#22313F"/>
</svg>
