<svg width="22" height="22" viewBox="0 0 22 22" fill="none" xmlns="http://www.w3.org/2000/svg">
<path d="M16 16C16.4167 16 16.7707 15.854 17.062 15.562C17.354 15.2707 17.5 14.9167 17.5 14.5C17.5 14.0833 17.354 13.7293 17.062 13.438C16.7707 13.146 16.4167 13 16 13C15.5833 13 15.2293 13.146 14.938 13.438C14.646 13.7293 14.5 14.0833 14.5 14.5C14.5 14.9167 14.646 15.2707 14.938 15.562C15.2293 15.854 15.5833 16 16 16ZM16 19C16.5 19 16.9667 18.8833 17.4 18.65C17.8333 18.4167 18.1917 18.0917 18.475 17.675C18.0917 17.4417 17.6917 17.271 17.275 17.163C16.8583 17.0543 16.4333 17 16 17C15.5667 17 15.1417 17.0543 14.725 17.163C14.3083 17.271 13.9083 17.4417 13.525 17.675C13.8083 18.0917 14.1667 18.4167 14.6 18.65C15.0333 18.8833 15.5 19 16 19ZM3 19C2.45 19 1.979 18.8043 1.587 18.413C1.19567 18.021 1 17.55 1 17V3C1 2.45 1.19567 1.979 1.587 1.587C1.979 1.19567 2.45 1 3 1H17C17.55 1 18.021 1.19567 18.413 1.587C18.8043 1.979 19 2.45 19 3V9.7C18.6833 9.55 18.3583 9.42067 18.025 9.312C17.6917 9.204 17.35 9.125 17 9.075V3H3V17H9.05C9.1 17.3667 9.17933 17.7167 9.288 18.05C9.396 18.3833 9.525 18.7 9.675 19H3ZM3 16V17V3V9.075V9V16ZM5 15H9.075C9.125 14.65 9.204 14.3083 9.312 13.975C9.42067 13.6417 9.54167 13.3167 9.675 13H5V15ZM5 11H11.1C11.6333 10.5 12.229 10.0833 12.887 9.75C13.5457 9.41667 14.25 9.19167 15 9.075V9H5V11ZM5 7H15V5H5V7ZM16 21C14.6167 21 13.4377 20.5127 12.463 19.538C11.4877 18.5627 11 17.3833 11 16C11 14.6167 11.4877 13.4373 12.463 12.462C13.4377 11.4873 14.6167 11 16 11C17.3833 11 18.5627 11.4873 19.538 12.462C20.5127 13.4373 21 14.6167 21 16C21 17.3833 20.5127 18.5627 19.538 19.538C18.5627 20.5127 17.3833 21 16 21Z" fill="#22313F"/>
</svg>
